<?xml version="1.0" encoding="utf-8"?>
<!-- Generator: Adobe Illustrator 26.3.1, SVG Export Plug-In . SVG Version: 6.00 Build 0)  -->
<svg version="1.1" id="Layer_1" xmlns="http://www.w3.org/2000/svg" xmlns:xlink="http://www.w3.org/1999/xlink" x="0px" y="0px"
	 viewBox="0 0 3567.03 3341.72" style="enable-background:new 0 0 3567.03 3341.72;" xml:space="preserve">
<style type="text/css">
	.st0{fill-rule:evenodd;clip-rule:evenodd;fill:#FF9000;}
	.st1{fill-rule:evenodd;clip-rule:evenodd;fill:url(#SVGID_1_);}
</style>
<path class="st0" d="M2647.17,802.53H1579.16c-25.02,0-45.19-20.17-45.19-45.19c0-25.02,20.17-45.19,45.19-45.19l1068.01,0.01
	c25,0,45.18,20.17,45.18,45.18C2692.35,782.36,2671.92,802.53,2647.17,802.53z"/>
<path class="st0" d="M2647.17,1120.43H1579.16c-25.02,0-45.19-20.17-45.19-45.18c0-25.02,20.17-45.19,45.19-45.19h1068.01
	c25,0,45.18,20.17,45.18,45.19C2692.35,1100.26,2671.92,1120.43,2647.17,1120.43z"/>
<path class="st0" d="M2647.17,1438.07h-810.1c-25,0-45.18-20.17-45.18-45.19c0-25,20.17-45.18,45.18-45.18h809.84
	c25,0,45.18,20.17,45.18,45.18C2692.09,1417.9,2671.92,1438.07,2647.17,1438.07z"/>
<path class="st0" d="M2647.17,1755.97h-759.54c-25,0-45.18-20.17-45.18-45.18c0-25.03,20.17-45.2,45.18-45.2h759.54
	c25,0,45.18,20.17,45.18,45.2C2692.35,1735.8,2671.92,1755.97,2647.17,1755.97z"/>
<path class="st0" d="M2647.17,2073.6H1740.8c-25.02,0-45.19-20.17-45.19-45.18c0-25,20.17-45.18,45.19-45.18h906.38
	c25,0,45.18,20.17,45.18,45.18C2692.35,2053.43,2671.92,2073.6,2647.17,2073.6z"/>
<path class="st0" d="M2647.17,2391.52H1579.16c-25.02,0-45.19-20.17-45.19-45.18c0-25.03,20.17-45.2,45.19-45.2h1068.01
	c25,0,45.18,20.2,45.18,45.2S2671.92,2391.52,2647.17,2391.52z"/>
<linearGradient id="SVGID_1_" gradientUnits="userSpaceOnUse" x1="103.3877" y1="1551.9717" x2="3408.3169" y2="1551.9717">
	<stop  offset="0.0227" style="stop-color:#FFE780"/>
	<stop  offset="0.3376" style="stop-color:#FC9A56"/>
	<stop  offset="0.607" style="stop-color:#F95A32"/>
	<stop  offset="0.8211" style="stop-color:#CD286D"/>
	<stop  offset="1" style="stop-color:#AA009C"/>
</linearGradient>
<path class="st1" d="M3363.14,1526.3l-251.49-0.01c-0.09,0-0.17-0.01-0.26-0.01c-0.09,0-0.17,0.01-0.26,0.01l-206.29-0.01V629.86
	c0-107.85-87.7-195.53-195.54-195.53H1336.02c-107.85,0-195.53,87.69-195.53,195.53v386.94c-161.5-1.66-323.53,58.97-446.47,181.9
	c-117.52,117.54-182.35,273.8-182.35,440c0,166.23,64.82,322.49,182.35,440.02c117.54,117.54,273.8,182.36,440.01,182.36
	c2.16,0,4.31-0.02,6.46-0.04v213.05c0,107.85,87.69,195.52,195.53,195.52h1775.37c163.79,0,296.93-133.4,296.93-296.93v-801.22
	C3408.32,1546.46,3388.15,1526.3,3363.14,1526.3z M758.04,2014.71c-100.33-100.33-155.74-234-155.74-376.01
	c0-141.99,55.41-275.67,155.74-375.99c103.54-103.54,239.9-155.45,375.99-155.45c14.3,0,28.61,0.58,42.88,1.73
	c1.55,0.31,3.12,0.54,4.73,0.69c123.99,11.03,240.71,65.62,328.67,153.57c41.99,41.99,75.47,89.31,100.45,139.8
	c98.07,198.74,64.49,446.42-100.73,611.67c-100.32,100.31-234,155.7-376,155.7C992.02,2170.42,858.36,2115.02,758.04,2014.71z
	 M1336.02,2579.26c-58.1,0-105.17-47.09-105.17-105.17v-220.29c20.93-3.31,41.64-7.69,62.04-13.1c0.7-0.18,1.4-0.37,2.1-0.56
	c0.83-0.22,1.65-0.44,2.48-0.67c67.84-18.36,131.98-48.17,190.06-88.44c30.82-21.26,59.8-45.35,86.51-72.05
	c119.43-119.43,180.07-275.76,181.91-432.65c1.96-161.89-58.67-324.4-181.89-447.63c-96.65-96.65-217.47-154.79-343.2-174.43V629.86
	c0-58.09,47.07-105.17,105.17-105.17h1373.27c58.1,0,105.17,47.07,105.17,105.17v941.6v801.22c0,80.23,31.96,153.1,83.81,206.58
	H1336.02z M3317.94,2372.68c0,113.78-92.8,206.58-206.55,206.58s-206.55-92.53-206.55-206.58v-756.02h161.37v673.18
	c0,25.03,20.17,45.2,45.18,45.2s45.18-20.46,45.2-45.2v-673.18h161.37L3317.94,2372.68z M592.62,2225.31
	c-11.56,0-23.13-4.31-32-13.19c-17.74-17.76-17.74-46.28,0-64.01l133.4-133.4c17.76-17.76,46.27-17.76,64.02,0
	c17.74,17.73,17.74,46.25,0,64.01l-133.41,133.4C615.75,2221,604.19,2225.31,592.62,2225.31z M262.88,2669.61
	c-42.76,0-82.84-16.68-112.97-46.52c-29.85-30.39-46.53-70.47-46.53-112.97c0-42.5,16.68-82.84,46.53-112.97l305.01-304.99
	c30.39-30.39,83.37-30.39,113.76,0l112.17,112.15c31.45,31.2,31.45,82.29,0,113.49l-305.01,304.99
	C345.73,2652.94,305.64,2669.61,262.88,2669.61L262.88,2669.61z M511.67,2163.17l-297.74,298.01
	c-12.9,12.92-20.17,30.39-20.17,48.96c0,18.57,7.26,36.04,20.17,48.96c26.09,25.82,71.82,25.82,97.9,0l297.73-297.74L511.67,2163.17
	L511.67,2163.17z M616.82,2268.33h0.28H616.82z M1134.03,2092.17c-121.03,0-234.79-47.07-320.59-132.88
	c-85.52-85.52-132.86-199.28-132.86-320.31c0-121.03,47.08-234.8,132.86-320.6c176.7-176.7,464.23-176.7,640.93,0l0,0
	c85.53,85.52,132.86,199.29,132.86,320.6c0,121.29-47.07,234.79-132.86,320.31C1368.83,2044.84,1255.06,2092.17,1134.03,2092.17
	L1134.03,2092.17z M1134.03,1276.16c-92.78,0-185.84,35.23-256.57,105.97c-68.59,68.58-106.24,159.75-106.24,256.57
	c0,96.81,37.65,188.01,106.24,256.59c68.58,68.58,159.76,106.24,256.57,106.24c96.83,0,188.01-37.66,256.59-106.24
	c68.59-68.58,106.24-159.77,106.24-256.59c0-96.83-37.65-187.99-106.24-256.57C1319.88,1311.67,1226.82,1276.16,1134.03,1276.16z
	 M1134.03,1753.01c-25,0-45.18-20.17-45.18-45.18v-107.06c0-25,20.17-45.18,45.18-45.18c32.56,0,59.18-26.62,59.18-59.16
	c0-32.54-26.62-59.18-59.18-59.18c-32.54,0-59.16,26.63-59.16,59.18c0,25.02-20.17,45.18-45.19,45.18
	c-25.02,0-45.19-20.16-45.19-45.18c0-82.56,67.24-149.54,149.54-149.54c82.56,0,149.53,67.24,149.53,149.54
	c0,66.69-43.84,123.43-104.35,142.53v68.87C1179.22,1732.83,1159.04,1753.01,1134.03,1753.01z M1134.03,1930.8
	c-25,0-45.18-20.17-45.18-45.2v-60.23c0-25.03,20.17-45.2,45.18-45.2c25.02,0,45.19,20.46,45.19,45.46v60.25
	C1179.22,1910.62,1159.04,1930.8,1134.03,1930.8z"/>
</svg>
