<?xml version="1.0" encoding="utf-8"?>
<!-- Generator: Adobe Illustrator 26.3.1, SVG Export Plug-In . SVG Version: 6.00 Build 0)  -->
<svg version="1.1" id="Layer_1" xmlns="http://www.w3.org/2000/svg" xmlns:xlink="http://www.w3.org/1999/xlink" x="0px" y="0px"
	 viewBox="0 0 3873 3873" style="enable-background:new 0 0 3873 3873;" xml:space="preserve">
<style type="text/css">
	.st0{fill-rule:evenodd;clip-rule:evenodd;fill:#FFFFFF;}
	.st1{fill:none;}
</style>
<g id="Layer_x5F_1">
	<g id="_528616704">
		<g>
			<g>
				<path id="_528619128" class="st0" d="M2999.3,2975.4H873.7c-114.5,0-207.7-93.2-207.7-207.7V1338.9
					c0-114.5,93.2-207.7,207.7-207.7h665.5c16.7,0,30.3,13.5,30.3,30.3c0,16.7-13.5,30.3-30.3,30.3H873.7
					c-81.2,0-147.2,66-147.2,147.2v1428.8c0,81.2,66,147.2,147.2,147.2h2125.6c81.2,0,147.2-66,147.2-147.2V1338.9
					c0-81.2-66-147.2-147.2-147.2h-595c-16.7,0-30.3-13.5-30.3-30.3c0-16.7,13.5-30.3,30.3-30.3h595c114.5,0,207.7,93.2,207.7,207.7
					v1428.8C3207,2882.2,3113.8,2975.4,2999.3,2975.4L2999.3,2975.4z M2055.8,1191.7h-223.1c-16.7,0-30.3-13.5-30.3-30.3
					c0-16.7,13.5-30.3,30.3-30.3h223.1c16.7,0,30.3,13.5,30.3,30.3C2086,1178.2,2072.5,1191.7,2055.8,1191.7L2055.8,1191.7z"/>
			</g>
			<g>
				<path id="_528619056" class="st0" d="M2254.6,3388.8c-6.4,0-12.9-2-18.4-6.2c-147.5-113.1-163.3-217.6-163.9-222
					c-0.2-1.4-0.3-2.7-0.3-4.1v-211.4c0-16.7,13.5-30.3,30.3-30.3c16.7,0,30.3,13.5,30.3,30.3v208.6c2.5,11.3,23.7,91.2,140.5,180.8
					c13.3,10.2,15.8,29.2,5.6,42.4C2272.7,3384.8,2263.7,3388.8,2254.6,3388.8L2254.6,3388.8z"/>
			</g>
			<g>
				<path id="_528619632" class="st0" d="M1618.4,3388.8c-9.1,0-18.1-4.1-24-11.8c-10.2-13.3-7.7-32.2,5.6-42.4
					c117-89.7,138-169.3,140.5-180.7v-208.7c0-16.7,13.5-30.3,30.3-30.3s30.3,13.5,30.3,30.3v211.4c0,1.4-0.1,2.7-0.3,4.1
					c-0.6,4.4-16.4,108.9-163.9,222C1631.3,3386.8,1624.8,3388.8,1618.4,3388.8L1618.4,3388.8z"/>
			</g>
			<g>
				<path id="_528618336" class="st0" d="M2381,3388.8h-889c-16.7,0-30.3-13.5-30.3-30.3c0-16.7,13.5-30.3,30.3-30.3h889
					c16.7,0,30.3,13.5,30.3,30.3S2397.7,3388.8,2381,3388.8z"/>
			</g>
			<g>
				<path id="_528618912" class="st0" d="M3176.7,2645.6H696.3c-16.7,0-30.3-13.5-30.3-30.3c0-16.7,13.5-30.3,30.3-30.3h2480.5
					c16.7,0,30.3,13.5,30.3,30.3C3207,2632,3193.4,2645.6,3176.7,2645.6z"/>
			</g>
			<g>
				<path id="_528618480" class="st0" d="M1985.1,2783.1h-97.2c-16.7,0-30.3-13.5-30.3-30.3c0-16.7,13.5-30.3,30.3-30.3h97.2
					c16.7,0,30.3,13.5,30.3,30.3S2001.8,2783.1,1985.1,2783.1z"/>
			</g>
			<g>
				<path id="_528618720" class="st0" d="M2404.3,2131.8h-348.5c-8,0-15.7-3.2-21.4-8.9c-5.7-5.7-8.9-13.4-8.9-21.4V899.4
					c0-4.3,0.9-8.5,2.7-12.4l173.5-385c4.9-10.8,15.7-17.8,27.5-17.8l0,0c11.9,0,22.6,6.9,27.5,17.7l175,385
					c1.8,3.9,2.7,8.2,2.7,12.5v1202.1C2434.6,2118.2,2421,2131.8,2404.3,2131.8L2404.3,2131.8z M2086,2071.3h288V906l-144.6-318.2
					L2086,905.9V2071.3L2086,2071.3z"/>
			</g>
			<g>
				<path id="_528618216" class="st0" d="M2055.8,929.7c-6.7,0-13.5-2.2-19.1-6.8c-12.9-10.6-14.9-29.6-4.3-42.6l58.8-71.9
					c5.7-7,14.3-11.1,23.4-11.1c9.1,0,17.7,4.1,23.4,11.1l58.8,71.9c10.6,12.9,8.7,32-4.3,42.6c-12.9,10.6-32,8.7-42.6-4.3
					l-35.3-43.2l-35.3,43.2C2073.2,925.9,2064.5,929.7,2055.8,929.7L2055.8,929.7z"/>
			</g>
			<g>
				<path id="_528618960" class="st0" d="M2290.8,929.7c-8.8,0-17.5-3.8-23.4-11.1l-35.3-43.2l-35.3,43.2
					c-10.6,12.9-29.6,14.9-42.6,4.3c-12.9-10.6-14.9-29.6-4.3-42.6l58.8-71.9c5.7-7,14.3-11.1,23.4-11.1l0,0
					c9.1,0,17.7,4.1,23.4,11.1l58.8,71.9c10.6,12.9,8.7,32-4.3,42.6C2304.3,927.4,2297.6,929.7,2290.8,929.7L2290.8,929.7z"/>
			</g>
			<g>
				<path id="_528618600" class="st0" d="M2404.3,929.7c-9.1,0-18.1-4.1-24.1-11.9l-31.5-41.4l-34.5,42.2
					c-10.6,12.9-29.6,14.9-42.6,4.3c-12.9-10.6-14.9-29.6-4.3-42.6l58.8-71.9c5.9-7.2,14.5-11.5,24-11.1c9.3,0.2,17.9,4.6,23.6,11.9
					l54.7,71.9c10.1,13.3,7.5,32.3-5.8,42.4C2417.2,927.7,2410.7,929.7,2404.3,929.7z"/>
			</g>
			<g>
				<path id="_528618672" class="st0" d="M2300,2481h-140c-74.2,0-134.5-60.3-134.5-134.5v-244.9c0-16.7,13.5-30.3,30.3-30.3h348.5
					c16.7,0,30.3,13.5,30.3,30.3v244.9C2434.6,2420.6,2374.2,2481,2300,2481L2300,2481z M2086,2131.8v214.7c0,40.8,33.2,74,74,74
					h140c40.8,0,74-33.2,74-74v-214.7H2086L2086,2131.8z"/>
			</g>
			<g>
				<path id="_528618072" class="st0" d="M1685.9,2480.9c-89.5,0-140.5-102.2-142.9-176l-34.1-1027.3c0-0.3,0-0.7,0-1v-148.8
					c0-16.7,13.5-30.3,30.3-30.3h293.5c16.7,0,30.3,13.5,30.3,30.3v148.8c0,0.3,0,0.7,0,1l-34.1,1027.3
					C1826.4,2378.7,1775.4,2480.9,1685.9,2480.9z M1569.4,1276.1l34.1,1026.8c1.6,49.1,33.8,117.5,82.5,117.5s80.8-68.4,82.5-117.5
					l34.1-1026.8V1158h-233L1569.4,1276.1L1569.4,1276.1L1569.4,1276.1z"/>
			</g>
			<g>
				<path id="_528617544" class="st0" d="M1830.4,1374.4h-289c-16.7,0-30.3-13.5-30.3-30.3c0-16.7,13.5-30.3,30.3-30.3h289
					c16.7,0,30.3,13.5,30.3,30.3C1860.7,1360.9,1847.1,1374.4,1830.4,1374.4z"/>
			</g>
			<g>
				<path id="_528618192" class="st0" d="M1832.7,1158c-7.3,0-14.5-2.6-20.3-7.9c-12.4-11.2-13.3-30.4-2.1-42.7
					c103.3-113.9,67.3-247.1,36.6-316.4c-51.7-116.7-149.4-204.9-228.2-235.1c19.2,59.3,25.6,156-69,260.4
					c-118.7,131,7.3,285.5,12.7,292c10.7,12.8,9,31.9-3.8,42.6s-31.8,9.1-42.6-3.7c-57.9-68.9-134.7-235.2-11.2-371.5
					c118.8-131.1,40-238.4,36.6-242.9c-6.9-9.2-8.1-21.5-3-31.8c5.1-10.3,15.6-16.9,27-16.9c116.7,0,267.8,126.7,336.8,282.3
					c63.3,142.9,46.5,278.4-47.1,381.6C1849.1,1154.6,1840.9,1158,1832.7,1158L1832.7,1158z"/>
			</g>
			<g>
				<path id="_528617640" class="st0" d="M1797.3,2297.5h-224.1c-16.7,0-30.3-13.5-30.3-30.3c0-16.7,13.5-30.3,30.3-30.3h224.1
					c16.7,0,30.3,13.5,30.3,30.3C1827.5,2284,1814,2297.5,1797.3,2297.5z"/>
			</g>
			<g>
				<path id="_528617856" class="st0" d="M1695.9,2193.8c-16.2,0-29.7-12.9-30.2-29.3l-21.4-644.6c-0.6-16.7,12.5-30.7,29.2-31.2
					c16.8-0.5,30.7,12.5,31.2,29.2l21.4,644.6c0.5,16.7-12.5,30.7-29.2,31.2C1696.6,2193.7,1696.3,2193.8,1695.9,2193.8
					L1695.9,2193.8z"/>
			</g>
			<g>
				<path id="_528617928" class="st0" d="M1748.4,1059.2c-7.3,0-14.5-2.6-20.3-7.9c-12.4-11.2-13.3-30.4-2.1-42.7
					c60.1-66.2,26.1-154.3-21.2-209.7c-10.9-12.7-9.4-31.8,3.3-42.7c12.7-10.9,31.8-9.4,42.7,3.3c68.3,79.9,101,200.5,20,289.7
					C1764.9,1055.9,1756.7,1059.2,1748.4,1059.2L1748.4,1059.2z"/>
			</g>
			<g>
				<g>
					<path id="_528617592" class="st0" d="M2898,2397.1c-16.7,0-30.3-13.5-30.3-30.3v-673.5c0-16.7,13.5-30.3,30.3-30.3
						c16.7,0,30.3,13.5,30.3,30.3v673.5C2928.3,2383.5,2914.7,2397.1,2898,2397.1z M2898,1570.3c-16.7,0-30.3-13.5-30.3-30.3v-130
						c0-16.7,13.5-30.3,30.3-30.3c16.7,0,30.3,13.5,30.3,30.3v130C2928.3,1556.7,2914.7,1570.3,2898,1570.3z"/>
				</g>
				<g>
					<path id="_528617016" class="st0" d="M975,2397.1c-16.7,0-30.3-13.5-30.3-30.3v-130.1c0-16.7,13.5-30.3,30.3-30.3
						c16.7,0,30.3,13.5,30.3,30.3v130.1C1005.2,2383.5,991.7,2397.1,975,2397.1z M975,2113.7c-16.7,0-30.3-13.5-30.3-30.3v-673.5
						c0-16.7,13.5-30.3,30.3-30.3c16.7,0,30.3,13.5,30.3,30.3v673.5C1005.2,2100.2,991.7,2113.7,975,2113.7z"/>
				</g>
			</g>
		</g>
	</g>
</g>
<rect class="st1" width="3873" height="3873"/>
</svg>
