<?xml version="1.0" encoding="utf-8"?>
<!-- Generator: Adobe Illustrator 26.3.1, SVG Export Plug-In . SVG Version: 6.00 Build 0)  -->
<svg version="1.1" id="Layer_2" xmlns="http://www.w3.org/2000/svg" xmlns:xlink="http://www.w3.org/1999/xlink" x="0px" y="0px"
	 viewBox="0 0 475.9 505.8" style="enable-background:new 0 0 475.9 505.8;" xml:space="preserve">
<style type="text/css">
	.st0{fill:#FFFFFF;}
</style>
<g id="XMLID_665_">
	<path id="XMLID_674_" class="st0" d="M217.5,407.6v-38.1c-21.9-0.4-44.5-7.2-57.7-16.6l9-25.2c13.6,9,33.2,16.2,54.3,16.2
		c26.8,0,44.8-15.5,44.8-36.9c0-20.7-14.7-33.5-42.6-44.8c-38.4-15.1-62.2-32.4-62.2-65.2c0-31.3,22.2-55,56.9-60.7V98.2h23.4v36.6
		c22.6,0.8,38.1,6.8,49,13.2l-9.4,24.9c-7.9-4.5-23.4-12.8-47.5-12.8c-29,0-39.9,17.3-39.9,32.4c0,19.6,13.9,29.4,46.7,43
		c38.8,15.8,58.4,35.4,58.4,69c0,29.8-20.7,57.7-59.5,64.1v39.2H217.5z"/>
</g>
</svg>
