<?xml version="1.0" encoding="utf-8"?>
<!-- Generator: Adobe Illustrator 26.3.1, SVG Export Plug-In . SVG Version: 6.00 Build 0)  -->
<svg version="1.1" xmlns="http://www.w3.org/2000/svg" xmlns:xlink="http://www.w3.org/1999/xlink" x="0px" y="0px"
	 viewBox="0 0 492 492" style="enable-background:new 0 0 492 492;" xml:space="preserve">
<style type="text/css">
	.st0{fill-rule:evenodd;clip-rule:evenodd;fill:#FFFFFF;}
	.st1{fill:#FFFFFF;}
	.st2{fill:#1A1A1A;}
</style>
<g id="Master_Layer_7">
</g>
<g id="Layer_1">
	<g>
		<path class="st0" d="M391.38,271.24v-36.9c0-13.21-1.78-26.39-5.32-39.11c-3.53-12.67-8.78-24.82-15.6-36.07
			c-2.45-4.05-1.14-9.38,2.91-11.83c4.05-2.45,9.38-1.14,11.83,2.91c7.63,12.6,13.52,26.19,17.48,40.39
			c3.96,14.22,5.98,28.95,5.98,43.72v36.9c0,4.77-3.87,8.64-8.64,8.64C395.25,279.88,391.38,276.01,391.38,271.24L391.38,271.24z
			 M122.06,159.16c-6.82,11.25-12.07,23.4-15.6,36.07c-3.55,12.72-5.32,25.9-5.32,39.11v36.9c0,4.77-3.87,8.64-8.64,8.64
			c-4.77,0-8.64-3.87-8.64-8.64v-36.9c0-14.76,2.02-29.49,5.99-43.72c3.95-14.19,9.84-27.79,17.48-40.39
			c2.45-4.05,7.78-5.36,11.83-2.91C123.2,149.78,124.51,155.11,122.06,159.16L122.06,159.16z M409.41,311.15
			c-8.55,31.12-26.66,58.64-51.85,78.81c-25.18,20.16-55.99,31.82-88.22,33.35l-2.88,0.14l-0.81-17.23l2.88-0.14
			c28.59-1.36,55.94-11.68,78.28-29.58c22.34-17.89,38.4-42.3,45.98-69.9l0.76-2.77l16.63,4.53L409.41,311.15z"/>
		<path class="st1" d="M368.09,162.27c-4.57-0.74-8.85-3.23-11.78-7.29c-0.89-1.23-1.96-2.64-3.22-4.24
			c-1.19-1.52-2.36-2.94-3.48-4.26c-1.08-1.26-2.25-2.57-3.51-3.94c-1.09-1.18-2.41-2.54-3.96-4.09
			c-13.01-13.01-27.97-22.82-43.9-29.42c-16.57-6.87-34.26-10.3-51.98-10.3c-17.72,0-35.41,3.43-51.98,10.3
			c-15.94,6.6-30.89,16.41-43.9,29.42c-1.55,1.55-2.87,2.91-3.96,4.09c-1.26,1.36-2.43,2.67-3.51,3.94
			c-1.13,1.32-2.29,2.74-3.48,4.26c-1.26,1.6-2.33,3.01-3.22,4.24c-2.92,4.06-7.21,6.55-11.77,7.29c-4.57,0.74-9.42-0.26-13.48-3.18
			l0,0c-4.06-2.92-6.55-7.21-7.29-11.77c-0.74-4.57,0.26-9.42,3.18-13.48l0,0c1.38-1.91,2.78-3.77,4.21-5.59
			c1.49-1.9,2.93-3.67,4.34-5.32c1.6-1.88,3.16-3.64,4.67-5.29c1.67-1.81,3.22-3.44,4.64-4.86c16.44-16.44,35.43-28.87,55.72-37.27
			c21.06-8.72,43.46-13.08,65.85-13.08c22.38,0,44.79,4.36,65.84,13.08c20.29,8.41,39.28,20.83,55.72,37.27
			c1.42,1.42,2.97,3.05,4.64,4.86c1.51,1.65,3.07,3.41,4.67,5.29c1.4,1.65,2.85,3.42,4.34,5.32c1.42,1.82,2.83,3.68,4.21,5.59l0,0
			c2.92,4.06,3.92,8.91,3.18,13.48c-0.74,4.57-3.23,8.85-7.29,11.77l0,0C377.51,162.01,372.66,163.01,368.09,162.27z"/>
		<path class="st1" d="M365.63,148.27c1.06,1.48,2.63,2.39,4.3,2.66c1.67,0.27,3.45-0.09,4.93-1.15l0,0
			c1.48-1.06,2.39-2.63,2.66-4.3c0.27-1.67-0.09-3.45-1.15-4.93v0c-1.29-1.78-2.6-3.53-3.94-5.23c-1.26-1.6-2.6-3.24-4.02-4.91
			c-1.43-1.68-2.9-3.34-4.4-4.97c-1.33-1.45-2.77-2.95-4.33-4.5c-15.39-15.39-33.08-26.99-51.94-34.8
			c-19.61-8.12-40.53-12.18-61.48-12.18c-20.95,0-41.87,4.06-61.48,12.18c-18.86,7.81-36.55,19.41-51.94,34.8
			c-1.56,1.56-3,3.06-4.33,4.5c-1.5,1.64-2.97,3.29-4.4,4.97c-1.43,1.67-2.77,3.31-4.02,4.91c-1.34,1.7-2.65,3.45-3.94,5.23l0,0
			c-1.06,1.48-1.43,3.25-1.15,4.93c0.27,1.67,1.18,3.24,2.66,4.3l0,0c1.48,1.06,3.25,1.43,4.93,1.15c1.67-0.27,3.24-1.18,4.3-2.66
			c1.25-1.72,2.41-3.27,3.49-4.64c1.13-1.44,2.4-2.98,3.8-4.62c1.22-1.43,2.49-2.86,3.82-4.3c1.48-1.6,2.9-3.07,4.23-4.4
			c14.06-14.07,30.31-24.7,47.68-31.89c18.02-7.46,37.2-11.2,56.35-11.2c19.15,0,38.32,3.73,56.35,11.2
			c17.37,7.19,33.62,17.83,47.68,31.89c1.33,1.33,2.75,2.8,4.23,4.4c1.33,1.44,2.61,2.87,3.83,4.3c1.4,1.64,2.67,3.18,3.8,4.62
			C363.22,145,364.38,146.55,365.63,148.27z"/>
		<path class="st1" d="M400.02,265.48L400.02,265.48c4.83,0,9.21,1.97,12.39,5.15c3.17,3.17,5.15,7.56,5.15,12.39v12.89
			c0,4.83-1.97,9.21-5.15,12.39c-3.17,3.17-7.56,5.15-12.39,5.15h0c-4.82,0-9.2-1.97-12.38-5.14c-3.17-3.17-5.14-7.55-5.14-12.38
			V283c0-4.82,1.97-9.2,5.14-12.38C390.82,267.45,395.2,265.48,400.02,265.48z"/>
		<path class="st1" d="M400.03,277L400.03,277c-1.64,0-3.14,0.68-4.23,1.77c-1.09,1.09-1.77,2.59-1.77,4.23v12.92
			c0,1.64,0.68,3.14,1.77,4.23c1.09,1.09,2.59,1.77,4.23,1.77h0c1.65,0,3.15-0.68,4.24-1.77c1.09-1.09,1.77-2.59,1.77-4.24v-12.89
			c0-1.65-0.68-3.15-1.77-4.24C403.17,277.68,401.67,277,400.03,277z"/>
		<path class="st2" d="M379.37,251.82c-1.94-1.94-4.6-3.14-7.53-3.14c-2.93,0-5.61,1.21-7.55,3.15c-1.94,1.94-3.15,4.61-3.15,7.55
			v60.17c0,2.93,1.21,5.61,3.15,7.55c1.94,1.94,4.61,3.15,7.55,3.15c2.93,0,5.6-1.2,7.53-3.14c1.94-1.94,3.14-4.6,3.14-7.53v-60.21
			C382.51,256.42,381.31,253.76,379.37,251.82z"/>
		<path class="st1" d="M371.83,237.16c6.11,0,11.66,2.49,15.68,6.51c4.02,4.02,6.51,9.57,6.51,15.68v60.21
			c0,6.11-2.5,11.66-6.51,15.68c-4.02,4.02-9.57,6.51-15.68,6.51c-6.11,0-11.67-2.5-15.69-6.52c-4.02-4.02-6.52-9.58-6.52-15.69
			v-60.17c0-6.12,2.5-11.67,6.52-15.69C360.16,239.66,365.72,237.16,371.83,237.16z"/>
		<path class="st2" d="M92.5,277L92.5,277c-1.65,0-3.15,0.68-4.24,1.77c-1.09,1.09-1.77,2.59-1.77,4.24v12.89
			c0,1.65,0.68,3.15,1.77,4.24c1.09,1.09,2.59,1.77,4.24,1.77h0c1.64,0,3.14-0.68,4.23-1.77c1.09-1.09,1.77-2.59,1.77-4.23V283
			c0-1.64-0.68-3.14-1.77-4.23C95.64,277.68,94.14,277,92.5,277z"/>
		<path class="st1" d="M92.5,265.48L92.5,265.48c4.82,0,9.2,1.97,12.38,5.14c3.17,3.17,5.14,7.55,5.14,12.38v12.92
			c0,4.82-1.97,9.2-5.14,12.38c-3.17,3.17-7.55,5.14-12.38,5.14h0c-4.83,0-9.21-1.97-12.39-5.15c-3.17-3.17-5.15-7.56-5.15-12.39
			v-12.89c0-4.83,1.97-9.21,5.15-12.39C83.28,267.45,87.67,265.48,92.5,265.48z"/>
		<path class="st1" d="M105.01,243.67c4.02-4.02,9.57-6.51,15.68-6.51c6.12,0,11.67,2.5,15.69,6.52c4.02,4.02,6.52,9.58,6.52,15.69
			v60.17c0,6.12-2.5,11.67-6.52,15.69c-4.02,4.02-9.58,6.52-15.69,6.52c-6.11,0-11.66-2.5-15.68-6.51
			c-4.02-4.02-6.51-9.57-6.51-15.68v-60.21C98.49,253.24,100.99,247.69,105.01,243.67z"/>
		<path class="st1" d="M120.69,248.68c-2.93,0-5.6,1.2-7.53,3.14c-1.94,1.94-3.14,4.6-3.14,7.53v60.21c0,2.93,1.2,5.6,3.14,7.53
			c1.94,1.94,4.61,3.14,7.53,3.14c2.93,0,5.61-1.2,7.55-3.15c1.94-1.94,3.15-4.61,3.15-7.55v-60.17c0-2.94-1.21-5.61-3.15-7.55
			C126.29,249.88,123.62,248.68,120.69,248.68z"/>
		<path class="st2" d="M241.24,419.54h21.84c0.04,0,0.06,0,0.07-0.01l0.02-0.02c0.01-0.01,0.01-0.03,0.01-0.07v-9.48
			c0-0.02-0.01-0.05-0.03-0.07c-0.02-0.02-0.04-0.03-0.07-0.03h-21.84c-0.02,0-0.04,0.01-0.07,0.03c-0.02,0.02-0.03,0.04-0.03,0.07
			v9.48c0,0.04,0,0.06,0.01,0.07l0.02,0.02C241.18,419.54,241.2,419.54,241.24,419.54z"/>
		<path class="st1" d="M263.08,431.06h-21.84c-3.18,0-6.07-1.3-8.19-3.41l-0.01-0.01l-0.01-0.01c-2.1-2.11-3.41-5.01-3.41-8.19
			v-9.48c0-3.2,1.31-6.11,3.41-8.21c2.1-2.1,5.01-3.41,8.21-3.41h21.84c3.2,0,6.11,1.31,8.21,3.41c2.1,2.1,3.41,5.01,3.41,8.21v9.48
			c0,3.18-1.3,6.07-3.41,8.19l-0.01,0.01l-0.01,0.01C269.15,429.75,266.25,431.06,263.08,431.06z"/>
	</g>
</g>
</svg>
