<?xml version="1.0" encoding="utf-8"?>
<!-- Generator: Adobe Illustrator 26.3.1, SVG Export Plug-In . SVG Version: 6.00 Build 0)  -->
<svg version="1.1" id="Layer_1" xmlns="http://www.w3.org/2000/svg" xmlns:xlink="http://www.w3.org/1999/xlink" x="0px" y="0px"
	 viewBox="0 0 77.07 12.36" style="enable-background:new 0 0 77.07 12.36;" xml:space="preserve">
<style type="text/css">
	.st0{stroke:#000000;stroke-width:0.25;stroke-miterlimit:10;}
	.st1{font-family:'PTSans-Narrow';}
	.st2{font-size:12px;}
	.st3{fill:url(#Layer_x5F_1_00000065787721114626515410000003436299991893751709_);}
</style>
<text transform="matrix(1 0 0 1 15.355 10.2998)" class="st0 st1 st2">LANDING PAGE</text>
<linearGradient id="Layer_x5F_1_00000041987079469295518910000013564315926275103136_" gradientUnits="userSpaceOnUse" x1="0.5357" y1="6.1781" x2="15.4996" y2="6.1781">
	<stop  offset="0" style="stop-color:#EFE400"/>
	<stop  offset="0.5035" style="stop-color:#F7A418"/>
	<stop  offset="1" style="stop-color:#663F91"/>
</linearGradient>
<path id="Layer_x5F_1" style="fill:url(#Layer_x5F_1_00000041987079469295518910000013564315926275103136_);" d="M15.5,2.73
	c0,0,0-0.01,0-0.01V1.18c0-0.36-0.29-0.65-0.65-0.65H1.19c-0.36,0-0.65,0.29-0.65,0.65v10.01c0,0.36,0.29,0.65,0.65,0.65h13.66
	c0.36,0,0.65-0.29,0.65-0.65V2.75C15.5,2.74,15.5,2.74,15.5,2.73z M1.19,0.83l13.66,0c0.19,0,0.34,0.15,0.34,0.34v1.4H0.85v-1.4
	C0.85,0.99,1,0.83,1.19,0.83z M14.85,11.52H1.19c-0.19,0-0.34-0.15-0.34-0.34V2.89h14.34v8.29C15.19,11.37,15.03,11.52,14.85,11.52z
	 M2.03,2.38c-0.37,0-0.68-0.3-0.68-0.68c0-0.37,0.3-0.68,0.68-0.68s0.68,0.3,0.68,0.68C2.71,2.08,2.41,2.38,2.03,2.38z M2.03,1.43
	c-0.15,0-0.27,0.12-0.27,0.27s0.12,0.27,0.27,0.27c0.15,0,0.27-0.12,0.27-0.27S2.18,1.43,2.03,1.43z M3.6,2.38
	c-0.37,0-0.68-0.3-0.68-0.68c0-0.37,0.3-0.68,0.68-0.68c0.37,0,0.68,0.3,0.68,0.68C4.27,2.08,3.97,2.38,3.6,2.38z M3.6,1.43
	c-0.15,0-0.27,0.12-0.27,0.27S3.45,1.98,3.6,1.98c0.15,0,0.27-0.12,0.27-0.27S3.75,1.43,3.6,1.43z M5.16,2.38
	c-0.37,0-0.68-0.3-0.68-0.68c0-0.37,0.3-0.68,0.68-0.68c0.37,0,0.68,0.3,0.68,0.68C5.84,2.08,5.53,2.38,5.16,2.38z M5.16,1.43
	c-0.15,0-0.27,0.12-0.27,0.27s0.12,0.27,0.27,0.27c0.15,0,0.27-0.12,0.27-0.27S5.31,1.43,5.16,1.43z M14.11,2.31H9.33
	c-0.33,0-0.61-0.27-0.61-0.61S8.99,1.1,9.33,1.1h4.79c0.33,0,0.61,0.27,0.61,0.61C14.72,2.04,14.45,2.31,14.11,2.31z M9.33,1.46
	c-0.13,0-0.24,0.11-0.24,0.24s0.11,0.24,0.24,0.24h4.79c0.13,0,0.24-0.11,0.24-0.24s-0.11-0.24-0.24-0.24H9.33z M14.41,11.05
	c-0.17,0-0.31-0.07-0.31-0.16V3.51c0-0.09,0.14-0.16,0.31-0.16c0.17,0,0.31,0.07,0.31,0.16v7.39
	C14.72,10.98,14.58,11.05,14.41,11.05z M1.64,11.05c-0.18,0-0.32-0.07-0.32-0.16V3.51c0-0.09,0.14-0.16,0.32-0.16
	c0.18,0,0.32,0.07,0.32,0.16v7.39C1.96,10.98,1.82,11.05,1.64,11.05z M11.96,8.45H4.08c-0.09,0-0.16-0.1-0.16-0.23
	c0-0.13,0.07-0.23,0.16-0.23h7.88c0.09,0,0.16,0.1,0.16,0.23C12.11,8.35,12.05,8.45,11.96,8.45z M9.69,6.7
	c0.29-0.35,0.46-0.8,0.46-1.29c0-1.13-0.92-2.06-2.06-2.06S6.03,4.28,6.03,5.41c0,0.4,0.12,0.78,0.32,1.1c0,0,0,0.01,0.01,0.01
	c0.37,0.57,1.01,0.95,1.73,0.95c0.64,0,1.2-0.29,1.58-0.74C9.68,6.72,9.68,6.71,9.69,6.7z M8.09,3.71c0.94,0,1.71,0.77,1.71,1.71
	c0,0.32-0.09,0.61-0.24,0.87l-0.6-1.04C8.93,5.19,8.87,5.16,8.81,5.16c-0.06,0-0.12,0.03-0.15,0.09l-0.52,0.9L7.45,4.95
	C7.42,4.89,7.36,4.86,7.3,4.86c-0.06,0-0.12,0.03-0.15,0.09L6.51,6.06c-0.08-0.2-0.13-0.42-0.13-0.65C6.38,4.47,7.15,3.71,8.09,3.71
	z M6.7,6.41L7.3,5.38l0.64,1.11L7.61,7.05C7.24,6.95,6.93,6.72,6.7,6.41z M8.09,7.12c-0.04,0-0.07,0-0.11,0l0.83-1.44l0.52,0.9
	C9.02,6.91,8.58,7.12,8.09,7.12z M8.26,5.22c-0.33,0-0.6-0.27-0.6-0.6c0-0.33,0.27-0.6,0.6-0.6c0.33,0,0.6,0.27,0.6,0.6
	C8.87,4.95,8.6,5.22,8.26,5.22z M8.26,4.36c-0.14,0-0.25,0.11-0.25,0.25c0,0.14,0.11,0.25,0.25,0.25c0.14,0,0.25-0.11,0.25-0.25
	C8.52,4.47,8.41,4.36,8.26,4.36L8.26,4.36z M10.5,9.32H5.41c-0.09,0-0.17-0.11-0.17-0.25c0-0.14,0.07-0.25,0.17-0.25h5.08
	c0.09,0,0.17,0.11,0.17,0.25S10.59,9.32,10.5,9.32z M9.59,10.77H6.45c-0.3,0-0.55-0.24-0.55-0.55s0.24-0.55,0.55-0.55h3.14
	c0.3,0,0.55,0.24,0.55,0.55C10.13,10.52,9.89,10.77,9.59,10.77z M6.45,10.04c-0.1,0-0.18,0.08-0.18,0.18s0.08,0.18,0.18,0.18h3.14
	c0.1,0,0.18-0.08,0.18-0.18s-0.08-0.18-0.18-0.18H6.45z M3.43,8.09c-0.05,0-0.1-0.02-0.13-0.06L2.4,7.14
	C2.37,7.11,2.34,7.06,2.34,7.01c0-0.05,0.02-0.1,0.06-0.13L3.3,5.98c0.07-0.07,0.2-0.07,0.27,0c0.07,0.07,0.07,0.2,0,0.27L2.81,7.01
	l0.76,0.76c0.07,0.07,0.07,0.2,0,0.27C3.53,8.07,3.48,8.09,3.43,8.09L3.43,8.09z M12.6,8.09c-0.05,0-0.1-0.02-0.13-0.06
	c-0.07-0.07-0.07-0.2,0-0.27l0.76-0.76l-0.76-0.76c-0.07-0.07-0.07-0.2,0-0.27c0.07-0.07,0.2-0.07,0.27,0l0.89,0.89
	c0.04,0.04,0.06,0.08,0.06,0.13c0,0.05-0.02,0.1-0.06,0.13l-0.89,0.89C12.7,8.07,12.65,8.09,12.6,8.09z"/>
</svg>
