<?xml version="1.0" encoding="utf-8"?>
<!-- Generator: Adobe Illustrator 26.3.1, SVG Export Plug-In . SVG Version: 6.00 Build 0)  -->
<svg version="1.1" id="Layer_1" xmlns="http://www.w3.org/2000/svg" xmlns:xlink="http://www.w3.org/1999/xlink" x="0px" y="0px"
	 viewBox="0 0 576 576" style="enable-background:new 0 0 576 576;" xml:space="preserve">
<style type="text/css">
	.st0{fill:#FFFFFF;}
	.st1{fill-rule:evenodd;clip-rule:evenodd;fill:#FFFFFF;}
</style>
<g>
	<path class="st0" d="M461.3,115.7c-21.99-0.33-79.69,1.75-141.25,28.12c-66.71,28.57-137.9,85.81-172.73,199.78l43.04,43.04
		l43.04,43.04c113.97-34.82,171.21-106.02,199.78-172.73C459.55,195.38,461.63,137.69,461.3,115.7L461.3,115.7z M315.55,133.25
		c69.12-29.6,133.66-29.55,151.11-28.9l0.01,0c3.18-0.13,5.86,2.35,5.98,5.53l-5.75,0.23l5.74-0.23
		c0.67,16.75,0.99,81.84-28.88,151.57c-29.91,69.84-89.98,144.38-209.92,180.1c-2.06,0.79-4.49,0.36-6.15-1.3v0l-45.47-45.47
		l-45.37-45.37c-1.51-1.44-2.19-3.66-1.55-5.81l0.01,0C170.98,223.37,245.62,163.2,315.55,133.25z"/>
	<path class="st0" d="M372.23,204.77c10.09,10.09,15.14,23.32,15.14,36.55c0,13.23-5.05,26.46-15.14,36.55
		c-10.09,10.09-23.32,15.14-36.55,15.14c-13.23,0-26.46-5.05-36.55-15.14c-10.09-10.09-15.14-23.32-15.14-36.55
		c0-13.23,5.05-26.46,15.14-36.55c10.09-10.09,23.32-15.14,36.55-15.14C348.91,189.63,362.14,194.68,372.23,204.77L372.23,204.77z
		 M375.85,241.32c0-10.28-3.92-20.56-11.76-28.4c-7.84-7.84-18.12-11.77-28.41-11.77c-10.28,0-20.56,3.92-28.4,11.77
		c-7.84,7.84-11.77,18.12-11.77,28.4c0,10.28,3.92,20.56,11.77,28.4c7.84,7.84,18.12,11.77,28.4,11.77
		c10.28,0,20.56-3.92,28.41-11.77C371.93,261.88,375.85,251.6,375.85,241.32z"/>
	<path class="st0" d="M118,305.98l29.58,2.26c6.47-16.18,13.69-31.03,21.51-44.68c4.7-8.2,9.64-16,14.79-23.42
		c-8.85,4.35-18.5,9.99-27.83,17.22C141.01,269.02,126.74,284.83,118,305.98L118,305.98z M150.93,320.04l-41.12-3.14
		c-0.56-0.01-1.13-0.11-1.69-0.3c-3.02-1.01-4.64-4.28-3.63-7.29l0.02,0.01c9.14-27.21,26.32-46.94,44.53-61.05
		c17.97-13.92,36.87-22.32,49.93-26.99c1.86-0.74,4.05-0.49,5.73,0.85c2.48,1.99,2.89,5.61,0.9,8.1l-0.02-0.02
		c-9.36,11.7-18.24,24.68-26.49,39.07c-8.17,14.26-15.63,29.77-22.19,46.66C156.14,318.49,153.69,320.25,150.93,320.04
		L150.93,320.04z"/>
	<path class="st0" d="M260.1,467.19l-3.14-41.12l-0.01,0c-0.21-2.76,1.56-5.21,4.11-5.96c16.89-6.57,32.41-14.02,46.66-22.19
		c14.39-8.25,27.37-17.13,39.07-26.49l-0.02-0.02c2.48-1.99,6.11-1.58,8.1,0.9c1.34,1.67,1.59,3.87,0.85,5.73
		c-4.68,13.06-13.07,31.96-26.99,49.93c-14.11,18.21-33.84,35.39-61.05,44.53l0.01,0.02c-3.02,1.01-6.28-0.61-7.29-3.63
		C260.21,468.32,260.11,467.75,260.1,467.19L260.1,467.19z M268.76,429.42l2.26,29.58c21.15-8.73,36.97-23,48.63-38.05
		c7.23-9.33,12.88-18.98,17.22-27.83c-7.42,5.15-15.23,10.09-23.42,14.79C299.79,415.73,284.94,422.95,268.76,429.42z"/>
	<path class="st0" d="M145.43,374.19l57.38,57.38c1.11,1.11,2.57,1.66,4.05,1.66c1.44,0,2.87-0.53,3.96-1.58
		c0.05-0.05,0.1-0.1,0.15-0.15c1.06-1.1,1.59-2.54,1.59-3.98c0-1.47-0.55-2.94-1.66-4.05v0l-57.38-57.38
		c-1.11-1.11-2.58-1.66-4.05-1.66s-2.94,0.55-4.05,1.66h0l-0.02,0.02c-1.09,1.1-1.64,2.56-1.64,4.02h-0.02
		C143.75,371.6,144.31,373.07,145.43,374.19L145.43,374.19z M194.67,439.71l-57.38-57.38c-3.34-3.34-5.01-7.76-5.01-12.19h-0.02
		c0-4.36,1.64-8.72,4.91-12.06c0.09-0.09,0.17-0.18,0.27-0.27c3.34-3.27,7.7-4.91,12.06-4.91c4.41,0,8.83,1.68,12.19,5.04
		l57.38,57.38l0,0c3.36,3.36,5.04,7.78,5.04,12.19c0,4.39-1.66,8.78-4.98,12.13l-0.06,0.06h0c-3.36,3.36-7.78,5.04-12.19,5.04
		C202.44,444.75,198.02,443.07,194.67,439.71z"/>
	<path class="st0" d="M182.13,452.22c-3.31,2.94-28.64,23.92-63.94,9.16l2.21-5.31l-2.22,5.31c-1.59-0.67-2.73-1.96-3.24-3.48
		c-15.26-37.05,8.79-63.03,9.62-63.92l0,0l0.02-0.02l-0.01-0.01c0.09-0.1,0.18-0.19,0.28-0.28c3.46-3.65,7.16-6.48,10.98-8.57
		c4.25-2.33,8.63-3.72,13.01-4.3l0-0.02c2.48-0.33,4.8,0.97,5.89,3.07c0.08,0.12,0.16,0.24,0.24,0.34c0.1,0.12,0.26,0.3,0.5,0.54
		l36.81,36.81c0.15,0.15,0.29,0.28,0.41,0.38c0.19,0.16,0.34,0.27,0.44,0.34l-3.17,4.79l3.19-4.8c2.04,1.35,2.93,3.78,2.44,6.04
		c-0.64,4.2-2.02,8.39-4.26,12.45c-2.13,3.87-5.04,7.62-8.82,11.15l0.01,0.01C182.38,452.01,182.25,452.12,182.13,452.22
		L182.13,452.22z M124.83,451.63c27.86,10.4,47.21-5.8,49.56-7.9c0.08-0.09,0.17-0.17,0.25-0.25l3.93,4.21l-3.91-4.21
		c2.85-2.66,5.02-5.44,6.58-8.27c1.09-1.98,1.89-3.98,2.42-5.99l-36.34-36.34l-0.08-0.08c-1.98,0.53-3.96,1.31-5.92,2.38
		c-2.75,1.51-5.47,3.6-8.09,6.37c-0.08,0.1-0.16,0.19-0.25,0.28l-4.2-3.94l4.19,3.94C132.89,401.89,113.74,421.92,124.83,451.63z"/>
</g>
<path class="st1" d="M288.5,0.5c159.06,0,288,128.94,288,288c0,159.06-128.94,288-288,288c-159.06,0-288-128.94-288-288
	C0.5,129.44,129.44,0.5,288.5,0.5L288.5,0.5z M288.5,23.54c-146.33,0-264.96,118.63-264.96,264.96
	c0,146.33,118.63,264.96,264.96,264.96c146.33,0,264.96-118.63,264.96-264.96C553.46,142.17,434.83,23.54,288.5,23.54z"/>
</svg>
