<?xml version="1.0" encoding="utf-8"?>
<!-- Generator: Adobe Illustrator 26.3.1, SVG Export Plug-In . SVG Version: 6.00 Build 0)  -->
<svg version="1.1" id="Layer_1" xmlns="http://www.w3.org/2000/svg" xmlns:xlink="http://www.w3.org/1999/xlink" x="0px" y="0px"
	 viewBox="0 0 1786.4 2500" style="enable-background:new 0 0 1786.4 2500;" xml:space="preserve">
<style type="text/css">
	.st0{fill-rule:evenodd;clip-rule:evenodd;}
	.st1{fill-rule:evenodd;clip-rule:evenodd;fill:#FFFFFF;}
</style>
<rect class="st0" width="1786.4" height="2500"/>
<g>
	<path class="st1" d="M343.9,712.5c207.2-207.4,543.4-207.4,750.6,0c207.4,207.2,207.4,543.4,0,750.6
		c-207.2,207.4-543.4,207.4-750.6,0C136.5,1255.9,136.5,919.7,343.9,712.5L343.9,712.5z"/>
	<path class="st1" d="M1171,1403.6l51.2,51l-16.6,16.6l78.7,79L1181.5,1653l-79-78.7l-16.6,16.6l-51-51.2c26-18.1,50.8-38.9,74.1-62
		C1132,1454.4,1152.8,1429.5,1171,1403.6L1171,1403.6z"/>
	<path class="st1" d="M1145.7,1617.4l103.1-103.1l379,317c49.2,41.2,45.4,119.7,0,165.1l0,0c-45.4,45.4-123.9,49.2-165.1,0
		L1145.7,1617.4z"/>
	<path class="st1" d="M409.7,778.3c170.9-170.9,448.1-170.9,619,0s170.9,448.1,0,619s-448.1,170.9-619,0S238.7,949.2,409.7,778.3
		L409.7,778.3z"/>
	<path class="st0" d="M427.6,796.2c161.1-161.1,422.2-161.1,583.2,0s161.1,422.2,0,583.2c-161.1,161.1-422.2,161.1-583.2,0
		C266.5,1218.3,266.5,957.2,427.6,796.2L427.6,796.2z M436.5,805.1c156.2-156.2,409.2-156.2,565.3,0s156.2,409.2,0,565.3
		s-409.2,156.2-565.3,0S280.3,961.3,436.5,805.1L436.5,805.1z"/>
</g>
</svg>
