<?xml version="1.0" encoding="utf-8"?>
<!-- Generator: Adobe Illustrator 26.3.1, SVG Export Plug-In . SVG Version: 6.00 Build 0)  -->
<svg version="1.1" id="Layer_1" xmlns="http://www.w3.org/2000/svg" xmlns:xlink="http://www.w3.org/1999/xlink" x="0px" y="0px"
	 viewBox="0 0 1359.8 1200" style="enable-background:new 0 0 1359.8 1200;" xml:space="preserve">
<style type="text/css">
	.st0{fill:#FFFFFF;}
</style>
<g>
	<path class="st0" d="M387.2,540.9v118.3c0,37.3,30.2,67.5,67.5,67.5h74V473.4h-74C417.5,473.4,387.2,503.6,387.2,540.9z"/>
	<path class="st0" d="M762.8,312.2L548.9,473.4V600v126.6l213.9,161.2c22.1,13.8,50.8-2.1,50.8-28.1V600V340.3
		C813.6,314.3,784.9,298.4,762.8,312.2z"/>
	<path class="st0" d="M942.2,429.3c-5.6-5.6-14.6-5.6-20.2,0c-5.6,5.6-5.6,14.6,0,20.2c83,83,83,218,0,301c-5.6,5.6-5.6,14.6,0,20.2
		c2.8,2.8,6.4,4.2,10.1,4.2s7.3-1.4,10.1-4.2C1036.3,676.6,1036.3,523.4,942.2,429.3z"/>
	<path class="st0" d="M904.6,466.9c-5.6-5.6-14.6-5.6-20.2,0c-5.6,5.6-5.6,14.6,0,20.2c62.3,62.3,62.3,163.6,0,225.9
		c-5.6,5.6-5.6,14.6,0,20.2c2.8,2.8,6.4,4.2,10.1,4.2c3.7,0,7.3-1.4,10.1-4.2C978,659.7,978,540.3,904.6,466.9z"/>
	<path class="st0" d="M867,504.5c-5.6-5.6-14.6-5.6-20.2,0c-5.6,5.6-5.6,14.6,0,20.2c20.1,20.1,31.2,46.9,31.2,75.4
		c0,28.5-11.1,55.2-31.2,75.4c-5.6,5.6-5.6,14.6,0,20.2c2.8,2.8,6.4,4.2,10.1,4.2c3.7,0,7.3-1.4,10.1-4.2
		c25.5-25.5,39.6-59.5,39.6-95.5C906.6,563.9,892.5,530,867,504.5z"/>
</g>
</svg>
