<?xml version="1.0" encoding="utf-8"?>
<!-- Generator: Adobe Illustrator 26.3.1, SVG Export Plug-In . SVG Version: 6.00 Build 0)  -->
<svg version="1.1" xmlns="http://www.w3.org/2000/svg" xmlns:xlink="http://www.w3.org/1999/xlink" x="0px" y="0px"
	 viewBox="0 0 1275.5 1180.3" style="enable-background:new 0 0 1275.5 1180.3;" xml:space="preserve">
<g id="Layer_1">
</g>
<g id="Layer_2">
	<g>
		<path d="M874.2,294c48.6,0,88.2-46.2,88.2-102.9c0-2.2-0.1-4.3-0.2-6.4c0-0.4-0.1-0.9-0.1-1.3c-3.4-53.2-41.5-95.2-88-95.2
			c-48.6,0-88.2,46.2-88.2,102.9C786,247.9,825.6,294,874.2,294z"/>
		<path d="M990.5,960.2c26-24.8,49.3-52.4,69.6-82.1l-48.4-57.2L990.5,960.2z"/>
		<path d="M737.7,828c-33.2,14.5-68.6,21.9-105.3,21.9c-145.1,0-263.2-118.1-263.2-263.2c0-145.1,118.1-263.2,263.2-263.2
			c35.1,0,69.9,7,102,20.5c10-3.8,20.6-6.3,31.7-7.1h0c0.3,0,0.6,0,0.9-0.1l106-6.4c0.5-0.1,1.1-0.1,1.6,0l106.3,6.5
			c12.9,0.8,25.2,3.8,36.5,8.7l42.4-50.2c-22.5-33-48.8-63.3-78.3-90.3c-6.2,61.2-52.1,108.9-107.6,108.9
			c-59.7,0-108.3-55.2-108.3-123c0-6,0.4-11.8,1.1-17.6c-7.9-2.6-16-5-24.1-7.1c-4.1-1.1-7.1-4.7-7.5-8.9l-6.7-79.3
			c-63.2-11.9-129.9-11.9-192.7,0l-6.7,79.2c-0.3,4.2-3.3,7.8-7.5,8.9c-38,10-74.6,25.1-108.6,45c-3.7,2.2-8.3,1.8-11.5-1
			l-60.7-51.3c-53.8,36.7-99.6,82.5-136.2,136.3l51.3,60.7c2.7,3.3,3.1,7.9,1,11.5c-19.9,34.1-35,70.6-45,108.6
			c-1.1,4.1-4.6,7.1-8.9,7.5l-79.3,6.7c-6,31.4-9,63.8-9,96.3c0,32.6,3,64.9,9,96.4l79.3,6.6c4.2,0.4,7.8,3.3,8.9,7.5
			c10,38,25.1,74.6,45,108.6c2.1,3.7,1.7,8.3-1,11.5l-51.3,60.7c36.7,53.8,82.4,99.6,136.2,136.2l60.7-51.3c3.2-2.7,7.9-3.1,11.5-1
			c34.1,19.9,70.6,35,108.6,45c4.1,1.1,7.1,4.7,7.5,8.9l6.7,79.3c62.8,11.9,129.5,11.9,192.7,0l6.7-79.3c0.4-4.2,3.4-7.8,7.5-8.9
			c6.9-1.8,13.9-3.8,21-6.1l-23.2-152.4L737.7,828z"/>
		<path d="M1140.8,490.4l-56.4-4.8v202.2l56.4-4.7c6-31.4,9-63.8,9-96.4C1149.8,554.2,1146.8,521.9,1140.8,490.4z"/>
		<path d="M1016.3,367.2c-0.3-0.2-0.6-0.4-1-0.5c-10.7-5.5-22.7-8.9-35.4-9.7l-105.8-6.4L768.4,357c-1,0.1-2,0.1-2.9,0.2
			c-46,4.3-81.5,43.1-81.5,89.5v245.5c0,16.2,6.9,31.6,18.8,42.5l11.5,10.4c4.5,4,9.4,2.3,10.8,1.7c1.4-0.6,6-3.1,6-9.2
			c0-0.3,0-0.6,0-0.8l20.4-240c0.5-5.5,5.3-9.6,10.8-9.2c5.5,0.5,9.6,5.4,9.1,10.9L751,738.2c-0.1,6.2-2,11.9-5.3,16.7
			c2.9,8.7,4.7,17.8,5.3,27l34.1,224.1l0.1,0.9l5.7,37.1c0.1,0.3,0.1,0.6,0.1,0.9c2.4,37.7,33.8,67.3,71.7,67.3h1.5V783.6
			c0-5.5,4.5-10,10-10c5.5,0,10,4.5,10,10v328.7h1.5c37.8,0,69.3-29.6,71.6-67.3c0-0.3,0.1-0.6,0.1-0.9l8.9-58.5l0.2-1l30.8-202.6
			c0.6-9.2,2.3-18.2,5.3-26.9c-3.3-4.8-5.2-10.5-5.3-16.7l-20.3-239.6c-0.5-5.5,3.6-10.4,9.2-10.9c5.5-0.5,10.4,3.6,10.8,9.2
			l20.3,240c0,0.3,0,0.6,0,0.8c0,6.1,4.6,8.5,6,9.2c1.4,0.6,6.3,2.3,10.8-1.7l11.5-10.4c10.4-9.4,17-22.4,18.5-36.3
			c0-0.4,0.1-0.9,0.1-1.3c0.1-1.6,0.2-3.2,0.2-4.9V446.7C1064.4,412.4,1045,382.3,1016.3,367.2z"/>
	</g>
</g>
</svg>
